<svg width="54" height="24" viewBox="0 0 54 24" fill="none" xmlns="http://www.w3.org/2000/svg">
<path d="M5.49709 19.513C5.25593 19.513 4.98695 19.4296 4.69014 19.2626C4.36086 19.0493 4.17535 18.7733 4.13361 18.4348C4.12434 18.3652 4.1197 18.298 4.1197 18.233C4.1197 17.9687 4.1939 17.6974 4.34231 17.4191C4.49535 17.1409 4.72956 16.9461 5.04492 16.8348C5.14695 16.7977 5.25361 16.7791 5.36492 16.7791C5.59216 16.7791 5.83564 16.858 6.09535 17.0157C6.48492 17.2893 6.6797 17.6626 6.6797 18.1357C6.6797 18.3768 6.61245 18.6296 6.47796 18.8939C6.34811 19.1583 6.1255 19.3461 5.81014 19.4574C5.71274 19.4945 5.6084 19.513 5.49709 19.513ZM8.17535 19.3043C7.94347 19.3043 7.70231 19.2232 7.45188 19.0609C7.10405 18.8012 6.93014 18.4603 6.93014 18.0383C6.93014 17.76 7.00898 17.4817 7.16666 17.2035C7.32898 16.9252 7.56782 16.7374 7.88318 16.64C7.9713 16.6122 8.06405 16.5983 8.16144 16.5983C8.4026 16.5983 8.66463 16.6887 8.94753 16.8696C9.31854 17.1478 9.50405 17.4864 9.50405 17.8852C9.50405 18.1728 9.4113 18.4487 9.22579 18.713C9.04492 18.982 8.79217 19.1652 8.46753 19.2626C8.37477 19.2904 8.27738 19.3043 8.17535 19.3043ZM2.14405 18.8174C1.87506 18.8174 1.55043 18.7409 1.17014 18.5878L0.933614 18.4696L0.794484 18.3583C1.58289 16.8464 2.18347 15.5014 2.59622 14.3235C3.01361 13.1409 3.25245 12.2481 3.31274 11.6452C3.46115 11.4365 3.69535 11.3322 4.01535 11.3322C4.29825 11.3322 4.58579 11.3809 4.87796 11.4783C5.17477 11.5757 5.40202 11.6846 5.5597 11.8052C5.54115 11.9212 5.51796 12.0441 5.49014 12.1739C5.46695 12.3362 5.45535 12.5009 5.45535 12.6678C5.45535 13.5722 5.70115 14.2516 6.19274 14.7061C6.46637 14.9612 6.7539 15.0887 7.05535 15.0887C7.3197 15.0887 7.5539 14.9357 7.75796 14.6296C8.07332 14.0962 8.26347 13.2104 8.3284 11.9722L8.35622 11.5478C8.3655 11.2835 8.37941 11.091 8.39796 10.9704C8.7597 10.8545 9.08202 10.7965 9.36492 10.7965C10.1394 10.7965 10.5267 11.1907 10.5267 11.9791C10.5267 12.1136 10.5151 12.262 10.4919 12.4243C10.3064 13.4586 9.81941 14.3559 9.03101 15.1165C8.36318 15.7194 7.56318 16.0209 6.63101 16.0209C5.68492 16.0209 4.99854 15.7217 4.57188 15.1235C4.24724 15.9675 3.91796 16.7165 3.58405 17.3704C3.25477 18.0243 2.97419 18.4441 2.74231 18.6296C2.58927 18.7548 2.38985 18.8174 2.14405 18.8174ZM4.22405 10.6991C3.72318 10.6991 3.3568 10.451 3.12492 9.95478C3.0368 9.76 2.99274 9.55826 2.99274 9.34957C2.99274 9.21971 3.00898 9.08522 3.04144 8.94609C3.15274 8.59826 3.3684 8.34319 3.6884 8.18087C3.89245 8.0742 4.09883 8.02087 4.30753 8.02087C4.43274 8.02087 4.6113 8.05565 4.84318 8.12522C5.0797 8.19014 5.2884 8.43826 5.46927 8.86957C5.53883 9.05043 5.57361 9.2313 5.57361 9.41217C5.57361 9.54667 5.54347 9.72522 5.48318 9.94783C5.42753 10.1658 5.23738 10.3606 4.91274 10.5322C4.66695 10.6435 4.43738 10.6991 4.22405 10.6991ZM14.9771 14.7896C15.209 14.4835 15.3504 14.0986 15.4014 13.6348C15.4571 13.171 15.4339 12.7188 15.3319 12.2783C15.2345 11.8377 15.0722 11.4991 14.8449 11.2626C14.6223 11.0214 14.3464 10.9728 14.0171 11.1165C13.7945 11.2371 13.6252 11.4806 13.5093 11.847C13.3933 12.2133 13.3562 12.6145 13.398 13.0504C13.4397 13.4864 13.5858 13.8713 13.8362 14.2052C14.0867 14.5391 14.4669 14.7339 14.9771 14.7896ZM14.504 16C13.9383 16 13.4513 15.9119 13.0432 15.7357C12.6397 15.5548 12.3012 15.309 12.0275 14.9983C11.5127 14.3954 11.2438 13.7484 11.2206 13.0574C11.1974 12.3617 11.3806 11.738 11.7701 11.1861C12.1597 10.6296 12.7116 10.2539 13.4258 10.0591C14.14 9.86435 14.9771 9.96174 15.9371 10.3513C16.7301 10.7177 17.2194 11.2603 17.4049 11.9791C17.5951 12.698 17.5881 13.491 17.384 14.3583C17.18 15.2209 16.8855 16.0533 16.5006 16.8557C16.1156 17.6626 15.7446 18.3374 15.3875 18.88C15.0351 19.4226 14.8032 19.7287 14.6919 19.7983C14.4785 19.84 14.2954 19.8586 14.1423 19.8539C13.9893 19.8539 13.8107 19.8377 13.6067 19.8052C13.5927 19.8006 13.5765 19.7959 13.558 19.7913C13.4745 19.782 13.3864 19.7681 13.2936 19.7496C13.2009 19.7357 13.1243 19.7194 13.064 19.7009L12.6675 19.4852C12.8391 19.0771 13.0455 18.6991 13.2867 18.3513C13.4072 18.1612 13.5255 17.9687 13.6414 17.7739C13.7017 17.6672 13.7667 17.5559 13.8362 17.44C13.9707 17.2174 14.0983 16.9855 14.2188 16.7443C14.344 16.5032 14.4391 16.2551 14.504 16ZM18.7545 15.833C18.7035 15.6522 18.6826 15.1652 18.6919 14.3722C18.7012 13.5791 18.7267 12.6864 18.7684 11.6939C18.8148 10.7014 18.8681 9.81797 18.9284 9.04348C18.9887 8.26899 19.049 7.81217 19.1093 7.67304C19.4896 7.53391 19.8513 7.48522 20.1945 7.52696C20.5423 7.5687 20.8461 7.6429 21.1058 7.74957C21.1707 8.06493 21.1893 8.67942 21.1615 9.59304C21.1383 10.5067 21.0942 11.4852 21.0293 12.5287C20.969 13.5722 20.9157 14.4464 20.8693 15.1513C20.8461 15.4481 20.8299 15.68 20.8206 15.847C20.3939 15.9722 20.0252 16.0232 19.7145 16C19.4084 15.9768 19.1 15.9258 18.7893 15.847C18.7754 15.8423 18.7638 15.8377 18.7545 15.833ZM15.3597 6.37913C15.3829 5.91536 15.5545 5.45391 15.8745 4.99478C16.1945 4.53565 16.5655 4.19942 16.9876 3.98609C17.5719 3.72174 18.089 3.62667 18.5389 3.70087C18.9887 3.77043 19.3899 3.93507 19.7423 4.19478C20.0948 4.45449 20.4194 4.73043 20.7162 5.02261C21.0362 5.35188 21.3447 5.60696 21.6415 5.78783C21.9429 5.9687 22.2536 5.97333 22.5736 5.80174C22.8612 5.61623 23.0931 5.3542 23.2693 5.01565C23.4455 4.67246 23.5963 4.32 23.7215 3.95826C23.8049 3.73565 23.8884 3.52928 23.9719 3.33913C24.431 3.26493 24.8252 3.29739 25.1545 3.43652C25.4838 3.57565 25.7481 3.78667 25.9476 4.06956C25.8734 4.44522 25.7157 4.84638 25.4745 5.27304C25.238 5.69971 25.0293 6.02203 24.8484 6.24C24.4125 6.75014 23.9186 7.06319 23.3667 7.17913C22.8148 7.29507 22.2652 7.25797 21.718 7.06783C21.1707 6.87304 20.6838 6.56696 20.2571 6.14956C19.6032 5.49565 19.1047 5.10841 18.7615 4.98783C18.4229 4.86725 18.1655 4.95304 17.9893 5.24522C17.8084 5.53739 17.6276 5.97565 17.4467 6.56C17.4235 6.6342 17.398 6.70841 17.3702 6.78261C16.9574 6.89391 16.5771 6.90783 16.2293 6.82435C15.8768 6.74087 15.587 6.59246 15.3597 6.37913Z" fill="#E60023"/>
<path d="M33.5938 9.17969L34.7891 7.97656L35.9922 9.17969L34.7891 10.3828L33.5938 9.17969ZM30.7656 9.17969L31.9688 7.97656L33.1641 9.17969L31.9688 10.3828L30.7656 9.17969ZM41.8125 16H41.6484C41.1068 16 40.6562 15.9219 40.2969 15.7656C39.9375 15.6094 39.6354 15.3698 39.3906 15.0469C39.1146 15.3802 38.763 15.6224 38.3359 15.7734C37.9141 15.9245 37.3411 16 36.6172 16H30.1719C29.0104 16 28.1302 15.6953 27.5312 15.0859C26.9375 14.4766 26.6406 13.5781 26.6406 12.3906V10.8203V10.6641H26.7969H28.1641H28.3203V10.8203V12.3828C28.3203 13.0286 28.4714 13.5078 28.7734 13.8203C29.0807 14.1276 29.5547 14.2812 30.1953 14.2812H36.6328C37.3359 14.2812 37.8281 14.1797 38.1094 13.9766C38.3906 13.7734 38.5312 13.4193 38.5312 12.9141V10.8984V10.7422H38.6875H40.0234H40.1797V10.8984V12.9141C40.1797 13.3984 40.2865 13.7474 40.5 13.9609C40.7135 14.1745 41.0938 14.2812 41.6406 14.2812H41.8125C41.9427 14.2812 42.0078 14.5495 42.0078 15.0859V15.1719C42.0078 15.724 41.9427 16 41.8125 16ZM48.1094 16H47.9453C47.4089 16 46.9609 15.9219 46.6016 15.7656C46.2422 15.6094 45.9375 15.3672 45.6875 15.0391C45.3958 15.3672 45.0391 15.6094 44.6172 15.7656C44.1953 15.9219 43.6771 16 43.0625 16H41.7266C41.5964 16 41.5312 15.724 41.5312 15.1719V15.0859C41.5312 14.5495 41.5964 14.2812 41.7266 14.2812H43.1016C43.7266 14.2812 44.1693 14.1719 44.4297 13.9531C44.6953 13.7344 44.8281 13.388 44.8281 12.9141V10.8984V10.7422H44.9844H46.3203H46.4766V10.8984V12.9141C46.4766 13.3984 46.5833 13.7474 46.7969 13.9609C47.0104 14.1745 47.3906 14.2812 47.9375 14.2812H48.1094C48.2396 14.2812 48.3047 14.5495 48.3047 15.0859V15.1719C48.3047 15.724 48.2396 16 48.1094 16ZM42.2578 18.5859L43.4844 17.3594L44.7109 18.5859L43.4844 19.8125L42.2578 18.5859ZM48.0312 14.2812H50.25C50.7656 14.2812 51.1302 14.1875 51.3438 14C51.5625 13.8073 51.6719 13.4505 51.6719 12.9297V10.6328V10.4766H51.8281H53.1875H53.3438V10.6328V12.9375C53.3438 13.9427 53.0807 14.7057 52.5547 15.2266C52.0339 15.7422 51.2682 16 50.2578 16H48.0312C47.901 16 47.8359 15.724 47.8359 15.1719V15.0859C47.8359 14.5495 47.901 14.2812 48.0312 14.2812ZM49.9609 6.17188L51.0938 5.04688L52.2188 6.17188L51.0938 7.3125L49.9609 6.17188ZM51.3359 8.10156L52.4688 6.96094L53.6094 8.10156L52.4688 9.22656L51.3359 8.10156ZM48.5703 8.10156L49.7109 6.96094L50.8438 8.10156L49.7109 9.22656L48.5703 8.10156Z" fill="#101828"/>
</svg>
