<svg width="85" height="32" viewBox="0 0 85 32" fill="none" xmlns="http://www.w3.org/2000/svg">
<path d="M20.4609 20H20.1641C19.4349 20 18.8802 19.8698 18.5 19.6094C18.4635 20.9062 18.0521 21.8802 17.2656 22.5312C16.4844 23.1823 15.3333 23.5078 13.8125 23.5078H13.4141C11.8359 23.5078 10.6432 23.1328 9.83594 22.3828C9.02865 21.638 8.625 20.5286 8.625 19.0547V16.3906V16.2344H8.78125H10.1406H10.2969V16.3906V19.0469C10.2969 19.974 10.5521 20.6641 11.0625 21.1172C11.5781 21.5703 12.362 21.7969 13.4141 21.7969H13.8125C14.8698 21.7969 15.651 21.6042 16.1562 21.2188C16.6615 20.8333 16.9141 20.2526 16.9141 19.4766V14.9141V14.7578H17.0703H18.4453H18.6016V14.9141V16.7422C18.6016 17.2995 18.7292 17.6953 18.9844 17.9297C19.2396 18.1641 19.6562 18.2812 20.2344 18.2812H20.4609C20.5911 18.2812 20.6562 18.5495 20.6562 19.0859V19.1719C20.6562 19.724 20.5911 20 20.4609 20ZM12.2422 15.0234L13.5547 13.7109L14.8672 15.0234L13.5547 16.3359L12.2422 15.0234ZM20.3828 18.2812H21.1641C21.4974 18.2812 21.7266 18.2422 21.8516 18.1641C21.9766 18.0859 22.0495 17.9661 22.0703 17.8047C22.0859 17.6693 22.0938 17.3724 22.0938 16.9141C22.0938 15.8724 22.3281 15.0833 22.7969 14.5469C23.2708 14.0104 23.9453 13.7422 24.8203 13.7422C26.6797 13.7422 27.6094 14.8047 27.6094 16.9297C27.6094 17.9453 27.3698 18.7292 26.8906 19.2812C26.4115 19.8333 25.7214 20.1094 24.8203 20.1094C24.388 20.1094 24.0182 20.0547 23.7109 19.9453C23.4036 19.8307 23.1224 19.6562 22.8672 19.4219C22.4766 19.8073 21.9141 20 21.1797 20H20.3828C20.2526 20 20.1875 19.724 20.1875 19.1719V19.0859C20.1875 18.5495 20.2526 18.2812 20.3828 18.2812ZM23.7109 16.8984C23.7109 17.9245 24.0859 18.4375 24.8359 18.4375C25.5859 18.4375 25.9609 17.9245 25.9609 16.8984C25.9609 16.388 25.8698 16.0182 25.6875 15.7891C25.5052 15.5599 25.2188 15.4453 24.8281 15.4453C24.4479 15.4453 24.1667 15.5599 23.9844 15.7891C23.8021 16.0182 23.7109 16.388 23.7109 16.8984ZM33.6533 23.513C33.4122 23.513 33.1432 23.4296 32.8464 23.2626C32.5171 23.0493 32.3316 22.7733 32.2899 22.4348C32.2806 22.3652 32.276 22.298 32.276 22.233C32.276 21.9687 32.3502 21.6974 32.4986 21.4191C32.6516 21.1409 32.8858 20.9461 33.2012 20.8348C33.3032 20.7977 33.4099 20.7791 33.5212 20.7791C33.7484 20.7791 33.9919 20.858 34.2516 21.0157C34.6412 21.2893 34.836 21.6626 34.836 22.1357C34.836 22.3768 34.7687 22.6296 34.6342 22.8939C34.5044 23.1583 34.2817 23.3461 33.9664 23.4574C33.869 23.4945 33.7646 23.513 33.6533 23.513ZM36.3316 23.3043C36.0997 23.3043 35.8586 23.2232 35.6081 23.0609C35.2603 22.8012 35.0864 22.4603 35.0864 22.0383C35.0864 21.76 35.1652 21.4817 35.3229 21.2035C35.4852 20.9252 35.7241 20.7374 36.0394 20.64C36.1275 20.6122 36.2203 20.5983 36.3177 20.5983C36.5588 20.5983 36.8209 20.6887 37.1038 20.8696C37.4748 21.1478 37.6603 21.4864 37.6603 21.8852C37.6603 22.1728 37.5675 22.4487 37.382 22.713C37.2012 22.982 36.9484 23.1652 36.6238 23.2626C36.531 23.2904 36.4336 23.3043 36.3316 23.3043ZM30.3003 22.8174C30.0313 22.8174 29.7067 22.7409 29.3264 22.5878L29.0899 22.4696L28.9507 22.3583C29.7391 20.8464 30.3397 19.5014 30.7525 18.3235C31.1699 17.1409 31.4087 16.2481 31.469 15.6452C31.6174 15.4365 31.8516 15.3322 32.1716 15.3322C32.4545 15.3322 32.742 15.3809 33.0342 15.4783C33.331 15.5757 33.5583 15.6846 33.716 15.8052C33.6974 15.9212 33.6742 16.0441 33.6464 16.1739C33.6232 16.3362 33.6116 16.5009 33.6116 16.6678C33.6116 17.5722 33.8574 18.2516 34.349 18.7061C34.6226 18.9612 34.9102 19.0887 35.2116 19.0887C35.476 19.0887 35.7102 18.9357 35.9142 18.6296C36.2296 18.0962 36.4197 17.2104 36.4846 15.9722L36.5125 15.5478C36.5217 15.2835 36.5357 15.091 36.5542 14.9704C36.916 14.8545 37.2383 14.7965 37.5212 14.7965C38.2957 14.7965 38.6829 15.1907 38.6829 15.9791C38.6829 16.1136 38.6713 16.262 38.6481 16.4243C38.4626 17.4586 37.9757 18.3559 37.1873 19.1165C36.5194 19.7194 35.7194 20.0209 34.7873 20.0209C33.8412 20.0209 33.1548 19.7217 32.7281 19.1235C32.4035 19.9675 32.0742 20.7165 31.7403 21.3704C31.411 22.0243 31.1304 22.4441 30.8986 22.6296C30.7455 22.7548 30.5461 22.8174 30.3003 22.8174ZM32.3803 14.6991C31.8794 14.6991 31.5131 14.451 31.2812 13.9548C31.1931 13.76 31.149 13.5583 31.149 13.3496C31.149 13.2197 31.1652 13.0852 31.1977 12.9461C31.309 12.5983 31.5246 12.3432 31.8446 12.1809C32.0487 12.0742 32.2551 12.0209 32.4638 12.0209C32.589 12.0209 32.7675 12.0557 32.9994 12.1252C33.236 12.1901 33.4446 12.4383 33.6255 12.8696C33.6951 13.0504 33.7299 13.2313 33.7299 13.4122C33.7299 13.5467 33.6997 13.7252 33.6394 13.9478C33.5838 14.1658 33.3936 14.3606 33.069 14.5322C32.8232 14.6435 32.5936 14.6991 32.3803 14.6991ZM43.1333 18.7896C43.3652 18.4835 43.5067 18.0986 43.5577 17.6348C43.6133 17.171 43.5902 16.7188 43.4881 16.2783C43.3907 15.8377 43.2284 15.4991 43.0012 15.2626C42.7786 15.0214 42.5026 14.9728 42.1733 15.1165C41.9507 15.2371 41.7815 15.4806 41.6655 15.847C41.5496 16.2133 41.5125 16.6145 41.5542 17.0504C41.596 17.4864 41.742 17.8713 41.9925 18.2052C42.2429 18.5391 42.6232 18.7339 43.1333 18.7896ZM42.6603 20C42.0945 20 41.6075 19.9119 41.1994 19.7357C40.796 19.5548 40.4574 19.309 40.1838 18.9983C39.669 18.3954 39.4 17.7484 39.3768 17.0574C39.3536 16.3617 39.5368 15.738 39.9264 15.1861C40.316 14.6296 40.8678 14.2539 41.582 14.0591C42.2962 13.8643 43.1333 13.9617 44.0933 14.3513C44.8864 14.7177 45.3757 15.2603 45.5612 15.9791C45.7513 16.698 45.7444 17.491 45.5403 18.3583C45.3362 19.2209 45.0417 20.0533 44.6568 20.8557C44.2719 21.6626 43.9009 22.3374 43.5438 22.88C43.1913 23.4226 42.9594 23.7287 42.8481 23.7983C42.6348 23.84 42.4516 23.8586 42.2986 23.8539C42.1455 23.8539 41.967 23.8377 41.7629 23.8052C41.749 23.8006 41.7328 23.7959 41.7142 23.7913C41.6307 23.782 41.5426 23.7681 41.4499 23.7496C41.3571 23.7357 41.2806 23.7194 41.2203 23.7009L40.8238 23.4852C40.9954 23.0771 41.2017 22.6991 41.4429 22.3513C41.5635 22.1612 41.6817 21.9687 41.7977 21.7739C41.858 21.6672 41.9229 21.5559 41.9925 21.44C42.127 21.2174 42.2545 20.9855 42.3751 20.7443C42.5003 20.5032 42.5954 20.2551 42.6603 20ZM46.9108 19.833C46.8597 19.6522 46.8389 19.1652 46.8482 18.3722C46.8574 17.5791 46.8829 16.6864 46.9247 15.6939C46.9711 14.7014 47.0244 13.818 47.0847 13.0435C47.145 12.269 47.2053 11.8122 47.2655 11.673C47.6458 11.5339 48.0076 11.4852 48.3508 11.527C48.6986 11.5687 49.0024 11.6429 49.2621 11.7496C49.327 12.0649 49.3455 12.6794 49.3177 13.593C49.2945 14.5067 49.2505 15.4852 49.1855 16.5287C49.1253 17.5722 49.0719 18.4464 49.0255 19.1513C49.0024 19.4481 48.9861 19.68 48.9768 19.847C48.5502 19.9722 48.1815 20.0232 47.8708 20C47.5647 19.9768 47.2563 19.9258 46.9455 19.847C46.9316 19.8423 46.92 19.8377 46.9108 19.833ZM43.516 10.3791C43.5392 9.91536 43.7108 9.45391 44.0308 8.99478C44.3508 8.53565 44.7218 8.19942 45.1438 7.98609C45.7282 7.72174 46.2453 7.62667 46.6951 7.70087C47.145 7.77043 47.5461 7.93507 47.8986 8.19478C48.2511 8.45449 48.5757 8.73043 48.8725 9.02261C49.1925 9.35188 49.5009 9.60696 49.7977 9.78783C50.0992 9.9687 50.4099 9.97333 50.7299 9.80174C51.0174 9.61623 51.2493 9.3542 51.4255 9.01565C51.6018 8.67246 51.7525 8.32 51.8777 7.95826C51.9612 7.73565 52.0447 7.52928 52.1282 7.33913C52.5873 7.26493 52.9815 7.29739 53.3108 7.43652C53.64 7.57565 53.9044 7.78667 54.1038 8.06956C54.0296 8.44522 53.8719 8.84638 53.6308 9.27304C53.3942 9.69971 53.1855 10.022 53.0047 10.24C52.5687 10.7501 52.0748 11.0632 51.5229 11.1791C50.9711 11.2951 50.4215 11.258 49.8742 11.0678C49.327 10.873 48.84 10.567 48.4134 10.1496C47.7595 9.49565 47.2609 9.10841 46.9177 8.98783C46.5792 8.86725 46.3218 8.95304 46.1455 9.24522C45.9647 9.53739 45.7838 9.97565 45.6029 10.56C45.5797 10.6342 45.5542 10.7084 45.5264 10.7826C45.1137 10.8939 44.7334 10.9078 44.3855 10.8243C44.0331 10.7409 43.7432 10.5925 43.516 10.3791Z" fill="#E60023"/>
<path d="M62.6708 22.1721L59.1005 18.6018C58.3518 17.853 57.9498 16.8206 58.005 15.7645L58.1942 11.8237C58.2651 10.2475 59.5183 8.99432 61.0867 8.9155L65.0274 8.72635C66.0835 8.67906 67.1159 9.07313 67.8647 9.82187L71.435 13.3922C72.9009 14.8581 72.9009 17.2383 71.435 18.7121L67.975 22.1721C66.517 23.6459 64.1368 23.6459 62.6708 22.1721ZM65.5712 14.0305C65.5712 12.7774 64.5545 11.7607 63.3013 11.7607C62.0482 11.7607 61.0315 12.7774 61.0315 14.0305C61.0315 15.2837 62.0482 16.3004 63.3013 16.3004C64.5545 16.3004 65.5712 15.2837 65.5712 14.0305Z" fill="#FFA5A8"/>
<path d="M66.9118 13.3934L70.4821 9.82307C71.2308 9.07434 72.2633 8.67238 73.3194 8.72755L77.2601 8.91671C78.8364 8.98764 80.0895 10.2408 80.1684 11.8092L80.3575 15.7499C80.4048 16.806 80.0107 17.8385 79.262 18.5872L75.6917 22.1575C74.2258 23.6235 71.8456 23.6235 70.3717 22.1575L66.9118 18.6976C65.438 17.2395 65.438 14.8593 66.9118 13.3934ZM75.0533 16.2937C76.3065 16.2937 77.3232 15.277 77.3232 14.0239C77.3232 12.7707 76.3065 11.754 75.0533 11.754C73.8002 11.754 72.7835 12.7707 72.7835 14.0239C72.7835 15.277 73.8002 16.2937 75.0533 16.2937Z" fill="#E60023"/>
</svg>
