<svg width="98" height="24" viewBox="0 0 98 24" fill="none" xmlns="http://www.w3.org/2000/svg">
<path d="M5.02834 19.513C4.78718 19.513 4.5182 19.4296 4.22139 19.2626C3.89211 19.0493 3.7066 18.7733 3.66486 18.4348C3.65559 18.3652 3.65095 18.298 3.65095 18.233C3.65095 17.9687 3.72515 17.6974 3.87356 17.4191C4.0266 17.1409 4.26081 16.9461 4.57617 16.8348C4.6782 16.7977 4.78486 16.7791 4.89617 16.7791C5.12341 16.7791 5.36689 16.858 5.6266 17.0157C6.01617 17.2893 6.21095 17.6626 6.21095 18.1357C6.21095 18.3768 6.1437 18.6296 6.00921 18.8939C5.87936 19.1583 5.65675 19.3461 5.34139 19.4574C5.24399 19.4945 5.13965 19.513 5.02834 19.513ZM7.7066 19.3043C7.47472 19.3043 7.23356 19.2232 6.98313 19.0609C6.6353 18.8012 6.46139 18.4603 6.46139 18.0383C6.46139 17.76 6.54023 17.4817 6.69791 17.2035C6.86023 16.9252 7.09907 16.7374 7.41443 16.64C7.50255 16.6122 7.5953 16.5983 7.69269 16.5983C7.93385 16.5983 8.19588 16.6887 8.47878 16.8696C8.84979 17.1478 9.0353 17.4864 9.0353 17.8852C9.0353 18.1728 8.94255 18.4487 8.75704 18.713C8.57617 18.982 8.32342 19.1652 7.99878 19.2626C7.90602 19.2904 7.80863 19.3043 7.7066 19.3043ZM1.6753 18.8174C1.40631 18.8174 1.08168 18.7409 0.701386 18.5878L0.464864 18.4696L0.325734 18.3583C1.11414 16.8464 1.71472 15.5014 2.12747 14.3235C2.54486 13.1409 2.7837 12.2481 2.84399 11.6452C2.9924 11.4365 3.2266 11.3322 3.5466 11.3322C3.8295 11.3322 4.11704 11.3809 4.40921 11.4783C4.70602 11.5757 4.93327 11.6846 5.09095 11.8052C5.0724 11.9212 5.04921 12.0441 5.02139 12.1739C4.9982 12.3362 4.9866 12.5009 4.9866 12.6678C4.9866 13.5722 5.2324 14.2516 5.72399 14.7061C5.99762 14.9612 6.28515 15.0887 6.5866 15.0887C6.85095 15.0887 7.08515 14.9357 7.28921 14.6296C7.60457 14.0962 7.79472 13.2104 7.85965 11.9722L7.88747 11.5478C7.89675 11.2835 7.91066 11.091 7.92921 10.9704C8.29095 10.8545 8.61327 10.7965 8.89617 10.7965C9.67066 10.7965 10.0579 11.1907 10.0579 11.9791C10.0579 12.1136 10.0463 12.262 10.0231 12.4243C9.83762 13.4586 9.35066 14.3559 8.56226 15.1165C7.89443 15.7194 7.09443 16.0209 6.16226 16.0209C5.21617 16.0209 4.52979 15.7217 4.10313 15.1235C3.77849 15.9675 3.44921 16.7165 3.1153 17.3704C2.78602 18.0243 2.50544 18.4441 2.27356 18.6296C2.12052 18.7548 1.9211 18.8174 1.6753 18.8174ZM3.7553 10.6991C3.25443 10.6991 2.88805 10.451 2.65617 9.95478C2.56805 9.76 2.52399 9.55826 2.52399 9.34957C2.52399 9.21971 2.54023 9.08522 2.57269 8.94609C2.68399 8.59826 2.89965 8.34319 3.21965 8.18087C3.4237 8.0742 3.63008 8.02087 3.83878 8.02087C3.96399 8.02087 4.14255 8.05565 4.37443 8.12522C4.61095 8.19014 4.81965 8.43826 5.00052 8.86957C5.07008 9.05043 5.10486 9.2313 5.10486 9.41217C5.10486 9.54667 5.07472 9.72522 5.01443 9.94783C4.95878 10.1658 4.76863 10.3606 4.44399 10.5322C4.1982 10.6435 3.96863 10.6991 3.7553 10.6991ZM14.5083 14.7896C14.7402 14.4835 14.8817 14.0986 14.9327 13.6348C14.9883 13.171 14.9652 12.7188 14.8631 12.2783C14.7657 11.8377 14.6034 11.4991 14.3762 11.2626C14.1536 11.0214 13.8776 10.9728 13.5483 11.1165C13.3257 11.2371 13.1565 11.4806 13.0405 11.847C12.9246 12.2133 12.8875 12.6145 12.9292 13.0504C12.971 13.4864 13.117 13.8713 13.3675 14.2052C13.6179 14.5391 13.9982 14.7339 14.5083 14.7896ZM14.0353 16C13.4695 16 12.9825 15.9119 12.5744 15.7357C12.171 15.5548 11.8324 15.309 11.5588 14.9983C11.044 14.3954 10.775 13.7484 10.7518 13.0574C10.7286 12.3617 10.9118 11.738 11.3014 11.1861C11.691 10.6296 12.2428 10.2539 12.957 10.0591C13.6712 9.86435 14.5083 9.96174 15.4683 10.3513C16.2614 10.7177 16.7507 11.2603 16.9362 11.9791C17.1263 12.698 17.1194 13.491 16.9153 14.3583C16.7112 15.2209 16.4167 16.0533 16.0318 16.8557C15.6469 17.6626 15.2759 18.3374 14.9188 18.88C14.5663 19.4226 14.3344 19.7287 14.2231 19.7983C14.0098 19.84 13.8266 19.8586 13.6736 19.8539C13.5205 19.8539 13.342 19.8377 13.1379 19.8052C13.124 19.8006 13.1078 19.7959 13.0892 19.7913C13.0057 19.782 12.9176 19.7681 12.8249 19.7496C12.7321 19.7357 12.6556 19.7194 12.5953 19.7009L12.1988 19.4852C12.3704 19.0771 12.5767 18.6991 12.8179 18.3513C12.9385 18.1612 13.0567 17.9687 13.1727 17.7739C13.233 17.6672 13.2979 17.5559 13.3675 17.44C13.502 17.2174 13.6295 16.9855 13.7501 16.7443C13.8753 16.5032 13.9704 16.2551 14.0353 16ZM18.2858 15.833C18.2347 15.6522 18.2139 15.1652 18.2232 14.3722C18.2324 13.5791 18.2579 12.6864 18.2997 11.6939C18.3461 10.7014 18.3994 9.81797 18.4597 9.04348C18.52 8.26899 18.5803 7.81217 18.6405 7.67304C19.0208 7.53391 19.3826 7.48522 19.7258 7.52696C20.0736 7.5687 20.3774 7.6429 20.6371 7.74957C20.702 8.06493 20.7205 8.67942 20.6927 9.59304C20.6695 10.5067 20.6255 11.4852 20.5605 12.5287C20.5003 13.5722 20.4469 14.4464 20.4005 15.1513C20.3774 15.4481 20.3611 15.68 20.3518 15.847C19.9252 15.9722 19.5565 16.0232 19.2458 16C18.9397 15.9768 18.6313 15.9258 18.3205 15.847C18.3066 15.8423 18.295 15.8377 18.2858 15.833ZM14.891 6.37913C14.9142 5.91536 15.0858 5.45391 15.4058 4.99478C15.7258 4.53565 16.0968 4.19942 16.5188 3.98609C17.1032 3.72174 17.6203 3.62667 18.0701 3.70087C18.52 3.77043 18.9211 3.93507 19.2736 4.19478C19.6261 4.45449 19.9507 4.73043 20.2475 5.02261C20.5675 5.35188 20.8759 5.60696 21.1727 5.78783C21.4742 5.9687 21.7849 5.97333 22.1049 5.80174C22.3924 5.61623 22.6243 5.3542 22.8005 5.01565C22.9768 4.67246 23.1275 4.32 23.2527 3.95826C23.3362 3.73565 23.4197 3.52928 23.5032 3.33913C23.9623 3.26493 24.3565 3.29739 24.6858 3.43652C25.015 3.57565 25.2794 3.78667 25.4788 4.06956C25.4046 4.44522 25.2469 4.84638 25.0058 5.27304C24.7692 5.69971 24.5605 6.02203 24.3797 6.24C23.9437 6.75014 23.4498 7.06319 22.8979 7.17913C22.3461 7.29507 21.7965 7.25797 21.2492 7.06783C20.702 6.87304 20.215 6.56696 19.7884 6.14956C19.1345 5.49565 18.6359 5.10841 18.2927 4.98783C17.9542 4.86725 17.6968 4.95304 17.5205 5.24522C17.3397 5.53739 17.1588 5.97565 16.9779 6.56C16.9547 6.6342 16.9292 6.70841 16.9014 6.78261C16.4887 6.89391 16.1084 6.90783 15.7605 6.82435C15.4081 6.74087 15.1182 6.59246 14.891 6.37913ZM31.0625 13.5625C31.0625 12.375 31.3438 11.4609 31.9062 10.8203C32.474 10.1797 33.2448 9.85938 34.2188 9.85938H36.0234H36.1797V10.0156L36.1875 11.3828V11.5391H36.0312H34.1797C33.7109 11.5391 33.3542 11.7031 33.1094 12.0312C32.8698 12.3542 32.7422 12.8646 32.7266 13.5625V13.8984H33.8203C34.5859 13.8984 35.1693 14.0573 35.5703 14.375C35.9766 14.6875 36.1797 15.1536 36.1797 15.7734V16C36.1797 17.1615 35.7917 18.0339 35.0156 18.6172C34.2448 19.2005 33.1068 19.4922 31.6016 19.4922H30.9453C29.3776 19.4922 28.1901 19.1172 27.3828 18.3672C26.5755 17.6172 26.1719 16.5026 26.1719 15.0234V11.8203V11.6641H26.3281H27.6719H27.8281V11.8203V15.0234C27.8281 15.9505 28.0833 16.6406 28.5938 17.0938C29.1094 17.5521 29.8932 17.7812 30.9453 17.7812H31.6016C33.5495 17.7812 34.5234 17.2344 34.5234 16.1406V16.0469C34.5234 15.8854 34.4714 15.7656 34.3672 15.6875C34.263 15.6094 34.0807 15.5703 33.8203 15.5703H32.5859C32.1016 15.5703 31.7266 15.4479 31.4609 15.2031C31.1953 14.9531 31.0625 14.5938 31.0625 14.125V13.5625ZM46.2578 16H46.1328C45.9557 16 45.7891 15.987 45.6328 15.9609C45.4818 15.9349 45.3333 15.8906 45.1875 15.8281C45.0469 15.7656 44.9193 15.7031 44.8047 15.6406C44.6901 15.5729 44.5651 15.4818 44.4297 15.3672C44.2943 15.2474 44.1771 15.1432 44.0781 15.0547C43.9844 14.9661 43.862 14.8464 43.7109 14.6953C43.4505 15.1068 43.0443 15.4271 42.4922 15.6562C41.9401 15.8854 41.2552 16 40.4375 16H37.5938H37.4375V15.8438V14.4375V14.2812H37.5938H40.4453C41.7161 14.2812 42.3516 14.0208 42.3516 13.5C42.3516 13.1562 42.112 12.7057 41.6328 12.1484L39.4453 9.625L39.3516 9.52344L39.4453 9.42188L40.3906 8.35938L40.5078 8.22656L40.625 8.35938L44.1094 12.4531C44.625 13.0521 45.0026 13.4766 45.2422 13.7266C45.487 13.9714 45.6667 14.125 45.7812 14.1875C45.8958 14.25 46.0312 14.2812 46.1875 14.2812H46.2578C46.388 14.2812 46.4531 14.5495 46.4531 15.0859V15.1719C46.4531 15.724 46.388 16 46.2578 16ZM52.5625 16H52.3984C51.862 16 51.4141 15.9219 51.0547 15.7656C50.6953 15.6094 50.3906 15.3672 50.1406 15.0391C49.849 15.3672 49.4922 15.6094 49.0703 15.7656C48.6484 15.9219 48.1302 16 47.5156 16H46.1797C46.0495 16 45.9844 15.724 45.9844 15.1719V15.0859C45.9844 14.5495 46.0495 14.2812 46.1797 14.2812H47.5547C48.1797 14.2812 48.6224 14.1719 48.8828 13.9531C49.1484 13.7344 49.2812 13.388 49.2812 12.9141V10.8984V10.7422H49.4375H50.7734H50.9297V10.8984V12.9141C50.9297 13.3984 51.0365 13.7474 51.25 13.9609C51.4635 14.1745 51.8438 14.2812 52.3906 14.2812H52.5625C52.6927 14.2812 52.7578 14.5495 52.7578 15.0859V15.1719C52.7578 15.724 52.6927 16 52.5625 16ZM48.4609 7.82812L49.6875 6.60156L50.9141 7.82812L49.6875 9.05469L48.4609 7.82812ZM52.4922 14.2812H54.0781C54.5938 14.2812 54.9583 14.1875 55.1719 14C55.3906 13.8073 55.5 13.4505 55.5 12.9297V10.6328V10.4766H55.6562H57.0156H57.1719V10.6328V12.9375C57.1719 13.9427 56.9089 14.7057 56.3828 15.2266C55.862 15.7422 55.0911 16 54.0703 16H52.4922C52.362 16 52.2969 15.724 52.2969 15.1719V15.0859C52.2969 14.5495 52.362 14.2812 52.4922 14.2812ZM53.0234 18.5859L54.25 17.3594L55.4766 18.5859L54.25 19.8125L53.0234 18.5859ZM70.1719 16C69.5469 16 69.0026 15.8776 68.5391 15.6328C68.0807 15.3828 67.737 15.0182 67.5078 14.5391H66.2109C65.0755 14.5391 64.2266 14.3307 63.6641 13.9141C63.1068 13.4974 62.8281 12.9505 62.8281 12.2734C62.8281 11.4974 63.1276 10.8724 63.7266 10.3984C64.3307 9.91927 65.2318 9.57031 66.4297 9.35156L66.7891 9.28906L66.7422 8.91406L66.7266 8.76562L66.875 8.74219L68.1094 8.54688L68.2656 8.52344L68.2891 8.6875L68.8203 13.1562C68.8984 13.5885 69.0469 13.8854 69.2656 14.0469C69.4844 14.2031 69.8151 14.2812 70.2578 14.2812H70.5312C70.6615 14.2812 70.7266 14.5495 70.7266 15.0859V15.1719C70.7266 15.724 70.6615 16 70.5312 16H70.1719ZM67.2109 12.875L66.9844 10.9766L66.6875 11.0156C66.2188 11.0833 65.8151 11.1745 65.4766 11.2891C65.138 11.4036 64.8776 11.5365 64.6953 11.6875C64.513 11.8385 64.4219 12 64.4219 12.1719C64.4219 12.4115 64.5521 12.5885 64.8125 12.7031C65.0781 12.8177 65.5052 12.875 66.0938 12.875H67.2109ZM73.6953 7.99219L74.8906 6.78906L76.0938 7.99219L74.8906 9.19531L73.6953 7.99219ZM70.8672 7.99219L72.0703 6.78906L73.2656 7.99219L72.0703 9.19531L70.8672 7.99219ZM77.375 16H77.2109C76.6745 16 76.224 15.9219 75.8594 15.7656C75.4948 15.6094 75.1927 15.3672 74.9531 15.0391C74.6667 15.3672 74.3099 15.6094 73.8828 15.7656C73.4609 15.9219 72.9427 16 72.3281 16H70.4453C70.3151 16 70.25 15.724 70.25 15.1719V15.0859C70.25 14.5495 70.3151 14.2812 70.4453 14.2812H72.3672C72.9922 14.2812 73.4349 14.1719 73.6953 13.9531C73.9609 13.7344 74.0938 13.388 74.0938 12.9141V10.8984V10.7422H74.25H75.5859H75.7422V10.8984V12.9141C75.7422 13.3984 75.849 13.7474 76.0625 13.9609C76.276 14.1745 76.6562 14.2812 77.2031 14.2812H77.375C77.5052 14.2812 77.5703 14.5495 77.5703 15.0859V15.1719C77.5703 15.724 77.5052 16 77.375 16ZM77.3047 14.2812H78.0469C78.625 14.2812 79.0521 14.1693 79.3281 13.9453C79.6042 13.7214 79.7422 13.3802 79.7422 12.9219V10.8906V10.7344H79.8984H81.2344H81.3906V10.8906L81.3984 12.9375C81.4036 13.401 81.5104 13.7422 81.7188 13.9609C81.9271 14.1745 82.2552 14.2812 82.7031 14.2812C83.125 14.2812 83.4375 14.1719 83.6406 13.9531C83.849 13.7344 83.9531 13.3932 83.9531 12.9297L83.9609 10.8906V10.7344H84.1172H85.4453H85.6016V10.8906L85.6094 12.9141C85.6146 13.3828 85.7188 13.7266 85.9219 13.9453C86.125 14.1641 86.4401 14.2734 86.8672 14.2734C87.2005 14.2734 87.4479 14.1693 87.6094 13.9609C87.7708 13.7526 87.8516 13.4141 87.8516 12.9453V10.6406V10.4844H88.0078H89.375H89.5312V10.6406V13.0078C89.5312 13.9453 89.3021 14.6797 88.8438 15.2109C88.3854 15.737 87.7422 16 86.9141 16C85.9922 16 85.2943 15.6771 84.8203 15.0312C84.3672 15.6771 83.651 16 82.6719 16C81.7865 16 81.0964 15.6693 80.6016 15.0078C80.0703 15.6693 79.2161 16 78.0391 16H77.3047C77.1745 16 77.1094 15.724 77.1094 15.1719V15.0859C77.1094 14.5495 77.1745 14.2812 77.3047 14.2812ZM93.7812 16H90.9375H90.7812V15.8438V14.4375V14.2812H90.9375H93.7891C95.0599 14.2812 95.6953 14.0208 95.6953 13.5C95.6953 13.151 95.4557 12.7005 94.9766 12.1484L92.7891 9.625L92.6953 9.52344L92.7891 9.42188L93.7344 8.35938L93.8516 8.22656L93.9688 8.35938L96.2969 11.0781C97.0156 11.9219 97.375 12.7448 97.375 13.5469C97.375 14.2812 97.0651 14.875 96.4453 15.3281C95.8255 15.776 94.9375 16 93.7812 16Z" fill="#E60023"/>
</svg>
